<svg height="511pt" viewBox="-6 0 511 511.997" width="511pt" xmlns="http://www.w3.org/2000/svg"><path d="m491.890625 229.835938c0 122.585937-99.367187 221.953124-221.945313 221.953124-122.566406 0-221.945312-99.367187-221.945312-221.953124 0-122.578126 99.378906-221.933594 221.945312-221.933594 30.066407 0 58.734376 5.972656 84.882813 16.8125.464844.191406.925781.378906 1.378906.582031 70.757813 29.863281 122.789063 95.382813 133.597657 174.039063 0 .03125.011718.0625.011718.09375 1.367188 9.9375 2.074219 20.09375 2.074219 30.40625zm0 0" fill="#f8a28b"/><path d="m489.816406 199.429688c0-.03125-.011718-.0625-.011718-.09375-10.808594-78.65625-62.84375-144.175782-133.597657-174.039063-.453125-.203125-.914062-.390625-1.378906-.582031-26.148437-10.839844-54.8125-16.8125-84.882813-16.8125-12.742187 0-25.226562 1.089844-37.378906 3.152344 16.511719 2.800781 32.40625 7.417968 47.460938 13.660156.464844.191406.929687.378906 1.382812.582031 70.753906 29.863281 122.785156 95.382813 133.59375 174.039063 0 .03125.011719.0625.011719.09375 1.371094 9.9375 2.074219 20.09375 2.074219 30.40625 0 109.839843-79.777344 201.019531-184.542969 218.800781 12.160156 2.0625 24.652344 3.152343 37.398437 3.152343 122.578126 0 221.945313-99.367187 221.945313-221.953124 0-10.3125-.707031-20.46875-2.074219-30.40625zm0 0" fill="#f58c79"/><path d="m21.203125 249.277344 126.085937-84.539063c8.980469-6.027343 19.859376-8.414062 30.5-6.695312 10.660157 1.71875 21.570313-.636719 30.574219-6.675781l16.871094-11.324219 94.5 141.042969-23.1875 101.414062c-1.800781 7.894531-2.691406 15.898438-2.691406 23.867188 0 20.621093 5.953125 40.976562 17.378906 58.445312 2.808594 4.296875 4.148437 9.160156 4.148437 13.957031 0 8.203125-3.929687 16.246094-11.191406 21.117188-9.789062 6.570312-22.765625 5.347656-31.191406-2.929688l-15.019531-14.730469c-17.179688-16.871093-30.425781-37.417968-38.75-60.140624l-8.144531-22.203126-83.867188 56.109376c-13.394531 8.980468-31.515625 5.054687-40.070312-8.839844-8.246094-13.382813-4.011719-31.0625 8.984374-39.773438.15625-.109375.167969-.277344.113282-.40625-.070313-.136718-.230469-.230468-.40625-.15625-3.3125 1.292969-6.78125 1.917969-10.21875 1.917969-5.492188 0-10.933594-1.601563-15.585938-4.644531-3.207031-2.101563-6.046875-4.894532-8.289062-8.320313-4.332032-6.625-5.621094-14.390625-4.203125-21.609375 2.21875-11.375 10.386719-17.234375 11.988281-18.339844.273438-.1875.347656-.570312.15625-.859374 0-.011719-.007812-.019532-.019531-.019532-.175781-.253906-.542969-.328125-.804688-.160156-2.285156.5625-4.613281.828125-6.941406.828125-5.679687 0-11.328125-1.632813-16.128906-4.730469-3.25-2.101562-6.121094-4.882812-8.34375-8.289062-8.71875-13.328125-5.113281-31.296875 8.058593-40.125.328126-.226563.652344-.449219.976563-.660156.1875-.148438.242187-.394532.144531-.5625-.019531-.042969-.058594-.085938-.101562-.105469-.148438-.117188-.378906-.125-.566406.019531-8.1875 2.824219-17.09375 1.539062-24.261719-3.160156-3.300781-2.144532-6.226563-5.03125-8.542969-8.574219-8.722656-13.347656-5.117188-31.3125 8.046875-40.144531zm0 0" fill="#fdd7bd"/><path d="m489.816406 199.429688-90.636718 62.347656-54.253907 36.378906c-6.25 4.191406-14.664062 2.453125-18.804687-3.878906l-105.921875-161.933594c-4.140625-6.34375-2.421875-14.867188 3.835937-19.070312l53.191406-35.660157 78.980469-52.320312c70.757813 29.867187 122.789063 95.386719 133.597657 174.042969 0 .03125.011718.0625.011718.09375zm0 0" fill="#87dbff"/><path d="m224.03125 113.277344 53.191406-35.667969 121.957032 184.171875-54.25 36.378906c-6.25 4.191406-14.675782 2.453125-18.816407-3.882812l-105.917969-161.9375c-4.140624-6.335938-2.421874-14.859375 3.835938-19.0625zm0 0" fill="#6fc7ff"/><g fill="#fac5aa"><path d="m70.035156 404.085938 41.953125-22.730469c5.953125-3.21875 13.332031-1.539063 17.335938 3.945312l-33.078125 21.671875c-.070313-.136718-.230469-.234375-.40625-.160156-3.3125 1.296875-6.78125 1.921875-10.21875 1.921875-5.496094 0-10.933594-1.601563-15.585938-4.648437zm0 0"/><path d="m45.792969 350.875 41.042969-22.222656c5.953124-3.226563 13.332031-1.550782 17.335937 3.9375l-33.078125 21.667968-1.425781.679688c-.175781-.253906-.542969-.328125-.804688-.160156-2.285156.566406-4.613281.828125-6.941406.828125-5.679687 0-11.332031-1.632813-16.128906-4.730469zm0 0"/><path d="m21.695312 297.992188 36.148438-19.582032c5.945312-3.214844 13.320312-1.539062 17.335938 3.949219l-28.652344 18.773437c-.148438-.117187-.378906-.125-.566406.019532-8.1875 2.824218-17.097657 1.539062-24.265626-3.160156zm0 0"/></g><path d="m498.441406 205.023438c.234375-.953126.308594-1.953126.171875-2.960938-1.25-9.09375-3.066406-18.179688-5.394531-27.011719-.019531-.09375-.042969-.1875-.066406-.28125-.003906-.019531-.011719-.039062-.015625-.058593-.003907-.015626-.007813-.03125-.011719-.046876-.003906-.015624-.007812-.027343-.011719-.042968 0-.003906 0-.007813 0-.007813-12.085937-48.976562-40.617187-93.316406-80.34375-124.863281-40.992187-32.546875-90.382812-49.75-142.832031-49.75-61.390625 0-119.109375 23.90625-162.519531 67.316406-42.996094 42.996094-66.847657 100.035156-67.296875 160.78125l-23.207032 15.367188c-10.28125 6.804687-16.414062 18.234375-16.414062 30.574218 0 7.199219 2.105469 14.191407 6.09375 20.222657 5.433594 8.199219 13.621094 13.488281 22.539062 15.484375-2.726562 5.183594-4.214843 11.023437-4.214843 17.085937 0 7.203125 2.109375 14.195313 6.097656 20.207031 5.421875 8.191407 13.617187 13.484376 22.542969 15.484376-2.730469 5.1875-4.21875 11.03125-4.21875 17.097656 0 7.195312 2.105468 14.183594 6.09375 20.210937 5.425781 8.1875 13.621094 13.476563 22.542968 15.472657-2.726562 5.183593-4.21875 11.027343-4.21875 17.089843 0 7.207031 2.117188 14.199219 6.109376 20.21875 5.40625 8.160157 13.664062 13.726563 23.257812 15.675781 2.453125.496094 4.921875.742188 7.371094.742188 7.117187 0 14.085937-2.082031 20.15625-6.101562l39.351562-26.058594c3.957032 1.917968 7.992188 3.730468 12.035156 5.402344 14.171876 5.875 28.972657 10.296874 44.042969 13.207031 7.335938 11.878906 16.109375 22.835937 26.15625 32.574219l15.089844 14.628906c6.210937 6.007812 14.375 9.3125 22.996094 9.3125 6.488281 0 12.789062-1.898438 18.226562-5.496094 9.257813-6.132812 14.789063-16.429688 14.789063-27.542969 0-6.503906-1.902344-12.804687-5.492188-18.207031-1.164062-1.765625-2.257812-3.582031-3.304687-5.417969 71.230469-13.984375 131.703125-60.816406 163.136719-127.003906 1.871093-3.941406.195312-8.65625-3.746094-10.527344-3.941406-1.871093-8.65625-.195312-10.527344 3.746094-29.839844 62.832031-87.753906 106.945313-155.742188 119.015625-6.453124-17.636719-7.714843-37.078125-3.46875-55.398438l19.261719-83.226562c3.027344 3.238281 6.960938 5.46875 11.390625 6.371094 1.449219.292968 2.902344.441406 4.347656.441406 4.183594 0 8.277344-1.226562 11.84375-3.589844l132.585938-87.8125c.242188 4.15625.367188 8.328125.367188 12.496094 0 19.753906-2.691407 39.320312-7.992188 58.148438-1.183594 4.199218 1.261719 8.5625 5.460938 9.746093.71875.203125 1.4375.296875 2.148437.296875 3.449219 0 6.617187-2.273437 7.601563-5.757812 5.695312-20.222656 8.582031-41.226563 8.582031-62.433594 0-8.308594-.46875-16.644531-1.351563-24.820312zm-95.046875 46.511718-113.789062-169.703125 67.019531-44.378906c59.382812 25.996094 104.507812 78.417969 121.160156 141.019531.003906.019532.011719.042969.015625.0625.011719.050782.019531.097656.03125.144532 1.691407 6.871093 3.023438 13.875 4.011719 20.898437zm-217.863281 175.054688 21.085938-13.964844 4.753906 12.808594c1.460937 3.933594 3.078125 7.816406 4.832031 11.640625-9.578125-2.476563-18.988281-5.613281-28.117187-9.398438-.851563-.351562-1.703126-.722656-2.554688-1.085937zm103.265625-44.988282c-5.464844 23.59375-3.105469 48.800782 6.648437 70.96875.003907.003907.003907.007813.007813.015626.015625.039062.035156.078124.054687.117187 2.558594 5.792969 5.636719 11.433594 9.164063 16.777344 1.875 2.820312 2.863281 6.097656 2.863281 9.480469 0 5.796874-2.882812 11.167968-7.710937 14.367187-2.835938 1.875-6.125 2.871094-9.503907 2.871094-4.496093 0-8.757812-1.730469-12-4.863281l-15.082031-14.621094c-9.898437-9.597656-18.453125-20.480469-25.429687-32.339844-.0625-.105469-.128906-.210938-.191406-.3125-4.484376-7.664062-8.328126-15.78125-11.433594-24.128906l-8.214844-22.144532c-1.519531-4.089843-6.0625-6.175781-10.15625-4.660156-.085938.03125-.164062.074219-.246094.105469-.269531.074219-.632812.253906-1.109375.554687-.054687.03125-.105469.066407-.160156.097657-.035156.023437-.0625.039062-.101563.0625l-84.269531 55.808593c-4.640625 3.070313-10.199219 4.15625-15.65625 3.046876-5.457031-1.109376-10.152343-4.273438-13.230469-8.921876-2.277343-3.425781-3.476562-7.398437-3.476562-11.484374 0-7.019532 3.492188-13.527344 9.34375-17.402344l7.195312-4.757813c0-.003906.003907-.003906.007813-.007812.039063-.027344.082031-.054688.121094-.082031l16.320312-10.808594c3.636719-2.410156 4.632813-7.3125 2.222657-10.949219-2.410157-3.636719-7.3125-4.632813-10.949219-2.226563l-16.429688 10.882813c-9.574219 6.246094-22.472656 3.589844-28.78125-5.9375-2.269531-3.429687-3.472656-7.398437-3.472656-11.480469 0-7.03125 3.496094-13.539062 9.347656-17.410156l23.636719-15.65625c3.636719-2.40625 4.640625-7.304688 2.234375-10.949219-2.40625-3.636719-7.308594-4.636719-10.949219-2.234375l-16.421875 10.875c-9.574219 6.257813-22.484375 3.601563-28.796875-5.941406-2.269531-3.421875-3.46875-7.390625-3.46875-11.476562 0-7.027344 3.488282-13.53125 9.339844-17.40625l23.640625-15.660157c3.640625-2.40625 4.640625-7.304687 2.234375-10.945312-2.402344-3.640625-7.308594-4.640625-10.949219-2.234375l-16.335937 10.808594c-9.578125 6.34375-22.535156 3.714843-28.878906-5.863282-2.273438-3.429687-3.472657-7.40625-3.472657-11.496094 0-7.023437 3.492188-13.527343 9.335938-17.398437l57.375-37.992187c3.640625-2.410157 4.636719-7.3125 2.226562-10.953126-2.410156-3.636718-7.316406-4.632812-10.949219-2.222656l-18.015624 11.925782c6.46875-112.25 99.824218-201.597657 213.664062-201.597657 25 0 49.246094 4.207031 72.085938 12.367188l-121.257813 80.296875c-9.890625 6.570312-12.609375 19.964844-6.058594 29.863281l.703125 1.0625-10.367187 6.875c-5.8125 3.839844-12.554688 5.875-19.496094 5.875-1.878906 0-3.753906-.152344-5.59375-.449219-12.6875-2.035156-25.578125.75-36.304687 7.851563l-41.160157 27.257812c-3.636719 2.410157-4.632812 7.308594-2.222656 10.949219 1.519531 2.296875 4.03125 3.539062 6.59375 3.539062 1.5 0 3.011719-.425781 4.355469-1.3125l41.160156-27.257812c7.410156-4.902344 16.316406-6.828125 25.0625-5.425781 2.660156.429687 5.386719.648437 8.109375.648437 10.050781 0 19.804687-2.9375 28.21875-8.5l10.371094-6.871094 87.199219 131.660157zm53.511719-89.609374c-1.273438.84375-2.804688 1.140624-4.304688.832031-1.507812-.304688-2.800781-1.179688-3.652344-2.464844l-101.382812-153.078125c-.007812-.011719-.011719-.023438-.019531-.03125-.007813-.011719-.015625-.019531-.023438-.03125l-5.042969-7.613281c-1.746093-2.640625-1.015624-6.222657 1.617188-7.972657l46.929688-31.074218 113.789062 169.703125zm0 0"/></svg>