<svg id="Capa_1" enable-background="new 0 0 512.13 512.13" height="512" viewBox="0 0 512.13 512.13" width="512" xmlns="http://www.w3.org/2000/svg"><g><g><g><path d="m481.495 241.98-65.56-47.98-2.94-23.35c-5.71-45.38-26.68-85.18-57.1-114.9-1.03-1.01-2.07-2.01-3.12-2.99-35.3-33.01-82.56-52.8-133.27-52.76-8.03.01-16.16.51-24.34 1.54-51.68 6.5-97.73 32.74-129.67 73.89-31.94 41.14-45.95 92.26-39.44 143.94 8.36 66.43 50.18 123.61 110.29 152l-18.43 92.36c-1.61 8.08 3.6 15.95 11.67 17.62l89.92 18.66 56.95 11.81c1.01.21 2.03.31 3.05.31 3.02 0 5.99-.91 8.52-2.66 3.37-2.32 5.65-5.93 6.29-9.98l12.99-81.36h122.2c4.36 0 8.5-1.9 11.35-5.2s4.12-7.67 3.49-11.98l-14.98-101.88 51.26-32.29c4.21-2.65 6.83-7.2 7-12.17.17-4.96-2.12-9.69-6.13-12.63z" fill="#ffe1ba"/></g></g><path d="m487.625 254.61c-.17 4.97-2.79 9.52-7 12.17l-51.26 32.29 14.98 101.88c.63 4.31-.64 8.68-3.49 11.98s-6.99 5.2-11.35 5.2h-122.2l-12.99 81.36c-.64 4.05-2.92 7.66-6.29 9.98-2.53 1.75-5.5 2.66-8.52 2.66-1.02 0-2.04-.1-3.05-.31l-56.95-11.81v-500.01c50.71-.04 97.97 19.75 133.27 52.76 1.05.98 2.09 1.98 3.12 2.99 30.42 29.72 51.39 69.52 57.1 114.9l2.94 23.35 65.56 47.98c4.01 2.94 6.3 7.67 6.13 12.63z" fill="#ffbfab"/><g id="Mind_34_"><g><g><path d="m174.555 226.09c-26.91-15.58-45.05-44.7-45.05-77.96 0-.99.02-1.98.05-2.96-26.91 15.58-45.05 44.69-45.05 77.96 0 49.62 40.37 90 90 90 16.38 0 31.76-4.4 45-12.08-26.08-15.12-43.91-42.95-44.95-74.96z" fill="#73bcff"/></g></g><g><path d="m309.455 145.17c.03.98.05 1.97.05 2.96 0 33.26-18.14 62.38-45.05 77.96-1.04 32.01-18.87 59.84-44.95 74.96 13.24 7.68 28.62 12.08 45 12.08 49.63 0 90-40.38 90-90 0-33.27-18.14-62.38-45.05-77.96z" fill="#ff9100"/><path d="m264.455 226.09c-1.04 32.01-18.87 59.84-44.95 74.96-26.08-15.12-43.91-42.95-44.95-74.96 13.23 7.65 28.59 12.04 44.95 12.04s31.72-4.39 44.95-12.04z" fill="#97de3d"/><path d="m264.455 226.09c-13.23 7.65-28.59 12.04-44.95 12.04v62.92c26.08-15.12 43.91-42.95 44.95-74.96z" fill="#59c36a"/></g><g><path d="m219.505 58.13c-48.64 0-88.39 38.77-89.95 87.04 13.23-7.65 28.59-12.04 44.95-12.04 16.38 0 31.76 4.4 45 12.08 13.24-7.68 28.62-12.08 45-12.08 16.36 0 31.72 4.39 44.95 12.04-1.56-48.27-41.31-87.04-89.95-87.04z" fill="#ff7b4a"/><path d="m264.505 133.13c16.36 0 31.72 4.39 44.95 12.04-1.56-48.27-41.31-87.04-89.95-87.04v87.08c13.24-7.68 28.62-12.08 45-12.08z" fill="#e63950"/><path d="m174.505 223.13c0 .99.02 1.98.05 2.96-26.91-15.58-45.05-44.7-45.05-77.96 0-.99.02-1.98.05-2.96 13.23-7.65 28.59-12.04 44.95-12.04 16.38 0 31.76 4.4 45 12.08-26.88 15.58-45 44.67-45 77.92z" fill="#7984eb"/><path d="m309.505 148.13c0 33.26-18.14 62.38-45.05 77.96.03-.98.05-1.97.05-2.96 0-33.25-18.12-62.34-45-77.92 13.24-7.68 28.62-12.08 45-12.08 16.36 0 31.72 4.39 44.95 12.04.03.98.05 1.97.05 2.96z" fill="#ff641a"/><path d="m264.505 223.13c0 .99-.02 1.98-.05 2.96-13.23 7.65-28.59 12.04-44.95 12.04s-31.72-4.39-44.95-12.04c-.03-.98-.05-1.97-.05-2.96 0-33.25 18.12-62.34 45-77.92 26.88 15.58 45 44.67 45 77.92z" fill="#5b362a"/><path d="m264.455 226.09c.03-.98.05-1.97.05-2.96 0-33.25-18.12-62.34-45-77.92v92.92c16.36 0 31.72-4.39 44.95-12.04z" fill="#38211a"/></g></g></g></svg>