<?xml version="1.0" encoding="iso-8859-1"?>
<!-- Generator: Adobe Illustrator 19.0.0, SVG Export Plug-In . SVG Version: 6.00 Build 0)  -->
<svg version="1.1" id="Capa_1" xmlns="http://www.w3.org/2000/svg" xmlns:xlink="http://www.w3.org/1999/xlink" x="0px" y="0px"
	 viewBox="0 0 375.641 375.641" style="enable-background:new 0 0 375.641 375.641;" xml:space="preserve">
<g>
	<g>
		<rect x="30.563" y="10.971" style="fill:#00ACEA;" width="314.514" height="64.313"/>
		<polygon style="fill:#00EFD1;" points="345.078,75.233 228.049,203.233 228.049,296.751 147.592,365.192 147.592,203.233 
			30.563,75.233 		"/>
	</g>
	<path style="fill:#224099;" d="M354.482,79.935c0-0.289,0.234-0.522,0.522-0.522V10.971c0.295-5.763-4.137-10.675-9.9-10.97
		c-0.009,0-0.017-0.001-0.026-0.001H30.563c-5.764,0.281-10.209,5.181-9.928,10.945c0,0.009,0.001,0.017,0.001,0.026v67.396
		c0.033,0.403,0.22,0.777,0.522,1.045l0,0c0.302,0.268,0.489,0.642,0.522,1.045c0,0.522,0.522,0.522,0.522,1.045
		s-0.522,0.522,0,0.522l113.371,125.388v157.78c0.4,4.131,2.996,7.726,6.792,9.404l4.702,1.045c2.653-0.075,5.214-0.989,7.314-2.612
		l80.98-68.441c2.583-1.85,4.285-4.687,4.702-7.837v-89.339L353.437,82.547c0.522,0,0-0.522,0.522-0.522V80.98
		C354.482,80.98,354.482,80.457,354.482,79.935z M334.106,20.898v41.796H41.535V20.898H334.106z M221.257,194.873
		c-1.706,2.432-2.451,5.41-2.09,8.359v88.294l-62.694,50.678V203.233c0.361-2.949-0.384-5.927-2.09-8.359L54.073,83.592h267.494
		L221.257,194.873z"/>
</g>
<g>
</g>
<g>
</g>
<g>
</g>
<g>
</g>
<g>
</g>
<g>
</g>
<g>
</g>
<g>
</g>
<g>
</g>
<g>
</g>
<g>
</g>
<g>
</g>
<g>
</g>
<g>
</g>
<g>
</g>
</svg>
